<svg viewBox="0 0 173.11 173.11" xmlns="http://www.w3.org/2000/svg" xmlns:xlink="http://www.w3.org/1999/xlink"><linearGradient id="a" gradientUnits="userSpaceOnUse" x1="86.56" x2="86.56" y1="115.04" y2="102.06"><stop offset="0" stop-color="#b5e0da"/><stop offset=".63" stop-color="#3cbab2"/><stop offset=".97" stop-color="#00a89e"/><stop offset="1" stop-color="#00a69c"/></linearGradient><linearGradient id="b" x1="144.02" x2="144.02" xlink:href="#a" y1="117.09" y2="100.97"/><linearGradient id="c" x1="86.56" x2="86.56" xlink:href="#a" y1="173.11" y2="0"/><path d="m81.39 102.06 1.11 5.46 2.05-2.73 2.01 10.25 2-10.25 2.05 2.73 1.11-5.46z" fill="url(#a)"/><path d="m92 93.38v-15.38c0-3-5.4-10.59-5.4-10.59s-5.45 7.59-5.45 10.59v15.38a17.58 17.58 0 0 0 -8.81 6.41h28.43a17.58 17.58 0 0 0 -8.77-6.41z" fill="#fff"/><path d="m152.08 109a8.06 8.06 0 1 0 -8.06 8.06 8.07 8.07 0 0 0 8.06-8.06zm-12.78 0a4.72 4.72 0 1 1 4.72 4.71 4.73 4.73 0 0 1 -4.72-4.71z" fill="url(#b)"/><path d="m86.56 0a86.66 86.66 0 0 0 -86.56 86.55c0 33 20.27 59.54 47.16 61.77 16.36 1.35 32.18-4.48 42.6-9.62a65.32 65.32 0 0 0 17.16-10.39l1.12-.93c.84-.73 1.62-1.43 2.37-2.14 9.76-9.25 21.39-25.89 21.39-52.66v-2.95l-44.87-30.78-44.88 30.78v2.94c0 26.77 11.63 43.41 21.39 52.66 1.14 1.08 2.34 2.14 3.58 3.16 4.1-1.48 8.18-3 12.17-4.77-10.19-6.62-24.96-20.93-25.94-48.15l33.68-23.11 33.67 23.11c-.79 22-10.69 35.51-19.35 43.14l-1.08.83c-.26.2-26.25 19.92-52.09 17.77-16.15-1.34-29.25-14.47-34.47-32.76a9.21 9.21 0 0 0 -2.43-16.25c0-.55 0-1.09 0-1.65a74.83 74.83 0 0 1 6.58-30.74 22.19 22.19 0 0 0 8.32 1.64 21.89 21.89 0 0 0 19.28-32.17c-.25-.46-.52-.89-.79-1.33a75.3 75.3 0 0 1 105.35 21.8 15.69 15.69 0 0 0 10.14 27.67h.73a75.27 75.27 0 0 1 1.21 13.13c0 39.1-31.11 70-75.6 75.43-35.58 4.37-58.4-10.4-58.4-10.4 13.31 14.69 31.92 21.53 58.57 21.53a86.56 86.56 0 0 0 -.01-173.11zm-72.56 98.2a5.79 5.79 0 0 1 -1.33 2.62 66.54 66.54 0 0 1 -1.31-8.82 5.85 5.85 0 0 1 2.64 6.2zm28.4-71.35a18.54 18.54 0 0 1 -23.24 25.93 75.92 75.92 0 0 1 22.67-26.89c.17.31.4.63.58.96zm117.66 43.23a12.35 12.35 0 0 1 -8.36-21.45 75.2 75.2 0 0 1 8.43 21.44z" fill="url(#c)"/></svg>